<?xml version="1.0" encoding="utf-8"?>
<!-- Generator: Adobe Illustrator 17.0.0, SVG Export Plug-In . SVG Version: 6.00 Build 0)  -->
<!DOCTYPE svg PUBLIC "-//W3C//DTD SVG 1.1//EN" "http://www.w3.org/Graphics/SVG/1.1/DTD/svg11.dtd">
<svg version="1.1" id="Layer_1" xmlns="http://www.w3.org/2000/svg" xmlns:xlink="http://www.w3.org/1999/xlink" x="0px" y="0px"
	 width="76.147px" height="29.462px" viewBox="0 0 76.147 29.462" enable-background="new 0 0 76.147 29.462" xml:space="preserve">
<path fill="#DB1F26" d="M47.39,21.413l-0.703,0.074v7.298c0.281,0.037,0.473,0.051,0.84,0.051c1.42,0,1.895-0.767,2.441-2.164
	l0.326,0.111l-0.506,2.623c-0.557-0.15-0.631-0.162-1.232-0.162h-3.479v-0.408l0.629-0.086v-7.263l-0.629-0.074v-0.42h2.312V21.413z
	"/>
<path fill="#DB1F26" d="M51.712,28.75l0.494,0.086v0.408h-1.818v-0.408l0.525-0.086v-4.07c0-0.285-0.094-0.42-0.285-0.42
	c-0.084,0-0.156,0.023-0.24,0.049v-0.383l1.324-0.508V28.75z M51.304,22.181c-0.307,0-0.57-0.283-0.57-0.643s0.264-0.656,0.59-0.656
	c0.307,0,0.535,0.297,0.535,0.68C51.858,21.884,51.595,22.181,51.304,22.181z"/>
<path fill="#DB1F26" d="M53.89,24.332c0.305-0.517,0.873-0.863,1.398-0.863c1.158,0,1.506,1,1.506,2.176v3.105l0.482,0.086v0.408
	h-1.811v-0.408l0.527-0.086v-3.082c0-1.062-0.316-1.619-0.924-1.619c-0.453,0-0.918,0.311-1.18,0.805v3.896l0.525,0.086v0.408h-1.85
	v-0.408l0.525-0.086v-3.5c0-0.781-0.084-0.99-0.379-0.99c-0.031,0-0.084,0-0.146,0.023v-0.42l0.979-0.482
	C53.753,23.666,53.858,23.949,53.89,24.332z"/>
<path fill="#DB1F26" d="M59.528,29.453c-1.232,0-2.072-1.113-2.072-2.744c0-1.783,1.029-3.229,2.303-3.229
	c0.758,0,1.369,0.434,1.369,0.977c0,0.359-0.232,0.645-0.527,0.645c-0.273,0-0.537-0.285-0.6-0.656
	c-0.086-0.457-0.117-0.496-0.441-0.496c-0.736,0-1.295,0.965-1.295,2.24c0,1.433,0.705,2.51,1.664,2.51
	c0.461,0,0.756-0.234,1.156-0.902l0.264,0.223C60.884,28.959,60.255,29.453,59.528,29.453z"/>
<path fill="#DB1F26" d="M64.841,26.398c0,1.67-0.432,2.598-1.211,2.598c-0.852,0-1.252-0.828-1.252-2.635
	c0-1.533,0.494-2.473,1.303-2.473C64.388,23.889,64.841,24.854,64.841,26.398z M65.796,26.51c0-1.707-0.924-3.029-2.115-3.029
	c-1.229,0-2.26,1.348-2.26,2.955c0,1.682,0.967,3.018,2.197,3.018C64.774,29.453,65.796,28.068,65.796,26.51z"/>
<path fill="#DB1F26" d="M67.167,28.75l0.527,0.086v0.408h-1.852v-0.408l0.525-0.086v-6.632c0-0.557-0.082-0.742-0.324-0.742
	c-0.055,0-0.074,0.014-0.201,0.037v-0.434l1.324-0.604V28.75z"/>
<path fill="#DB1F26" d="M69.378,24.332c0.303-0.517,0.871-0.863,1.397-0.863c1.16,0,1.504,1,1.504,2.176v3.105l0.484,0.086v0.408
	h-1.809v-0.408l0.527-0.086v-3.082c0-1.062-0.316-1.619-0.928-1.619c-0.453,0-0.914,0.311-1.176,0.805v3.896l0.525,0.086v0.408
	h-1.852v-0.408l0.525-0.086v-3.5c0-0.781-0.086-0.99-0.377-0.99c-0.031,0-0.084,0-0.148,0.023v-0.42l0.977-0.482
	C69.239,23.666,69.345,23.949,69.378,24.332z"/>
<path d="M28.952,1.538v2.324c0,0.555,0.021,0.718,0.134,0.905c0.135,0.234,0.383,0.374,0.674,0.374c0.333,0,0.607-0.182,0.721-0.474
	c0.07-0.169,0.086-0.327,0.086-0.805V1.538h0.432v2.306c0,0.607-0.039,0.847-0.174,1.098C30.62,5.315,30.26,5.508,29.76,5.508
	c-0.555,0-0.948-0.246-1.125-0.695c-0.086-0.227-0.113-0.438-0.113-0.969V1.538H28.952z"/>
<polygon points="34.291,5.432 33.877,5.432 32.068,2.268 32.068,5.432 31.654,5.432 31.654,1.538 32.068,1.538 33.877,4.703 
	33.877,1.538 34.291,1.538 "/>
<rect x="35.088" y="1.538" width="0.431" height="3.894"/>
<polygon points="37.472,4.65 38.581,1.538 38.958,1.538 37.569,5.432 37.3,5.432 36.062,1.538 36.482,1.538 "/>
<polygon points="41.126,3.26 41.126,3.628 39.976,3.628 39.976,5.064 41.3,5.064 41.3,5.432 39.544,5.432 39.544,1.538 
	41.126,1.538 41.126,1.906 39.976,1.906 39.976,3.26 "/>
<path d="M42.345,3.283V1.906h0.447c0.342,0,0.49,0.181,0.49,0.613c0,0.286-0.078,0.513-0.221,0.642
	c-0.109,0.093-0.201,0.122-0.437,0.122H42.345z M41.913,5.432h0.432v-1.78h0.359l0.934,1.78h0.457l-0.99-1.839
	c0.184-0.081,0.275-0.139,0.371-0.256c0.17-0.21,0.273-0.514,0.273-0.829c0-0.392-0.147-0.718-0.389-0.858
	c-0.137-0.082-0.317-0.111-0.656-0.111h-0.791V5.432z"/>
<path d="M45.886,2.303c-0.117-0.333-0.273-0.473-0.514-0.473c-0.277,0-0.473,0.25-0.473,0.596c0,0.315,0.107,0.472,0.545,0.782
	c0.324,0.227,0.447,0.333,0.561,0.478c0.141,0.17,0.215,0.409,0.215,0.684c0,0.677-0.408,1.139-1.008,1.139
	c-0.414,0-0.703-0.187-0.908-0.578l0.27-0.379c0.113,0.373,0.346,0.59,0.629,0.59c0.34,0,0.567-0.287,0.567-0.707
	c0-0.211-0.061-0.368-0.178-0.497c-0.094-0.105-0.098-0.105-0.395-0.321c-0.553-0.396-0.73-0.677-0.73-1.126
	c0-0.589,0.383-1.027,0.893-1.027c0.361,0,0.609,0.164,0.803,0.513L45.886,2.303z"/>
<rect x="46.903" y="1.538" width="0.432" height="3.894"/>
<polygon points="49.429,5.432 48.997,5.432 48.997,1.906 48.061,1.906 48.061,1.538 50.333,1.538 50.333,1.906 49.429,1.906 "/>
<polygon points="53.364,1.538 52.302,3.704 52.302,5.432 51.872,5.432 51.872,3.704 50.796,1.538 51.243,1.538 52.108,3.237 
	52.96,1.538 "/>
<path d="M60.786,1.831c0.66,0,1.064,0.624,1.064,1.651c0,1.034-0.404,1.659-1.064,1.659c-0.678,0-1.07-0.619-1.07-1.682
	C59.716,2.455,60.124,1.831,60.786,1.831z M60.786,1.462c-0.957,0-1.539,0.753-1.539,1.991c0,0.729,0.141,1.213,0.463,1.587
	c0.267,0.31,0.635,0.468,1.076,0.468c0.438,0,0.807-0.164,1.07-0.468c0.312-0.367,0.463-0.863,0.463-1.559
	C62.319,2.21,61.749,1.462,60.786,1.462z"/>
<polygon points="64.56,3.283 64.56,3.651 63.552,3.651 63.552,5.432 63.124,5.432 63.124,1.538 64.679,1.538 64.679,1.906 
	63.552,1.906 63.552,3.283 "/>
<path d="M11.437,1.206v0.506l0.309,0.059c1.406,0.271,1.621,0.314,1.621,1.985c0,0,0,9.213,0,9.966
	C12.972,13.06,5.87,1.206,5.87,1.206h-3.8v0.541l0.358,0.03c1.456,0.12,1.644,0.136,1.644,1.809v12.439
	c0,1.508-0.256,1.543-1.48,1.719l-0.523,0.076l0.001,0.096v0.492h5.256v-0.588l-0.59-0.09c-1.258-0.182-1.484-0.215-1.484-1.705
	c0,0,0-9.792,0-10.515c0.395,0.625,8.166,12.898,8.166,12.898h1.129V3.659c0-1.478,0.205-1.538,1.342-1.864l0.232-0.067V1.206
	H11.437z"/>
<path d="M29.539,6.833c-1.193,0-2.082,0.455-2.842,1.45c0-0.63,0-8.296,0-8.296l-0.152,0.057l-3.148,1.172v0.575l0.145-0.039
	c0.246-0.069,0.329-0.069,0.445-0.069c0.497,0,0.674,0.212,0.674,1.397v10.759c0,2.289-0.123,3.131-0.66,4.514l-0.035,0.092
	l0.621,0.334c0,0,1.242-1.476,1.414-1.682c0.689,1.141,1.701,1.725,3.016,1.725c2.617,0,4.666-2.756,4.666-6.274
	C33.682,9.13,32.018,6.833,29.539,6.833z M28.801,17.597c-1.631,0-2.104-0.891-2.104-3.978c0,0,0-3.86,0-3.949
	c0.695-0.795,1.259-1.126,1.938-1.126c1.729,0,3.033,2.098,3.033,4.879C31.668,15.96,30.543,17.597,28.801,17.597z"/>
<path d="M73.356,16.497l-0.076,0.092c-0.342,0.424-0.475,0.494-0.648,0.494c-0.258,0-0.438-0.434-0.438-1.057V10.79
	c0-1.418-0.236-2.066-0.971-2.668c-1.98-1.623-4.092-1.614-4.779-1.593c-2.051-0.078-7.1,2.788-8.422,6.136
	c0-1.913,0-1.803,0-12.654l-3.186,1.201v0.622l0.146-0.041c0.154-0.044,0.307-0.067,0.459-0.067c0.393,0,0.568,0.169,0.568,1.169
	c0,0,0,14.609,0,14.803c-0.162,0.023-1.174,0.164-1.174,0.164v0.676h4.357V17.86c0,0-1.008-0.141-1.172-0.164
	c0.002-2.517,0.135-3.171,1.541-5.175c0.16,0.301,2.607,4.906,2.746,5.167c-0.238,0.033-1.109,0.156-1.109,0.156v0.691h4.789
	c0.395,0.162,0.82,0.26,1.277,0.26c1.258,0,2.436-0.744,3.104-1.918c0.105,1.221,0.688,1.918,1.641,1.918
	c0.539,0,1.268-0.578,1.998-1.582l0.061-0.082L73.356,16.497z M64.144,15.712c0,0.757,0.248,1.439,0.684,1.972
	c-0.139-0.018-0.234-0.027-0.281-0.033c-0.055-0.098-3.691-6.698-3.764-6.828c0.66-0.869,2.406-2.29,3.736-2.455
	c0.357-0.044,0.623-0.076,0.684,0.015c0.252,0.378,0.836,0.34,0.836,0.34c0.133-0.013,0.844,0.092,1.467-0.914
	c0.002-0.004,0.031-0.141,0.398-0.143c1.586-0.009,2.195,1.819,2.219,3.021C67.854,11.421,64.144,12.648,64.144,15.712z
	 M70.126,15.814c-0.672,0.79-1.43,1.248-2.078,1.248c-1.014,0-1.746-0.822-1.746-1.959c0-2.101,2.098-2.812,3.785-3.383
	c0,0,0.027-0.009,0.039-0.013C70.126,11.995,70.126,15.728,70.126,15.814z"/>
<path d="M23.389,15.181l-0.069,0.104c-0.888,1.314-1.643,1.826-2.695,1.826c-1.702,0-3.073-1.505-3.442-3.75
	c0.199-0.054,6.879-1.85,6.879-1.85l-0.012-0.097c-0.342-2.868-1.934-4.58-4.26-4.58c-2.611,0-4.736,2.88-4.736,6.42
	c0,3.226,2.043,5.567,4.855,5.567c1.833,0,3.146-0.947,4.131-2.985l0.039-0.081L23.389,15.181z M19.789,7.912
	c1.073,0,1.795,0.835,1.795,2.079c0,0.64-0.219,1.022-1.417,1.327c0,0-2.465,0.611-3.095,0.768
	C17.105,9.51,18.137,7.912,19.789,7.912z"/>
<path d="M52.63,11.615c-2.496-1.082-2.695-1.248-2.695-2.234c0-0.77,0.701-1.427,1.594-1.434c0,0,0.728-0.04,0.836,0.312
	c0.025,0.117,0.35,1.11,1.531,0.874c0.529-0.106,0.697-0.589,0.711-0.949c0.029-0.686-0.795-1.375-2.045-1.375
	c-2.523,0-4.428,1.482-4.428,3.449c0,1.838,1.512,2.523,2.973,3.184c1.277,0.58,2.484,1.126,2.484,2.418
	c0,1.012-0.889,1.836-1.982,1.836c-1.113,0-1.484-0.549-1.568-1.373c-0.078-0.801-0.752-1.016-1.305-1.031
	c-0.613-0.018-1.098,0.436-1.145,1.167c-0.01,0.16,0.016,0.172,0.049,0.32c-0.242,0.277-0.365,0.33-0.514,0.33
	c-0.254,0-0.434-0.436-0.434-1.057l0.002-5.231c0-1.418-0.234-2.067-0.969-2.668c-1.195-1.087-3.639-1.96-5.662-1.538
	c-1.125,0.235-2.943,1.597-3.794,3.908c-0.064-1.787-0.248-2.511-0.876-3.727L35.344,6.7l-2.236,1.051v0.451l0.24-0.057l0.135-0.022
	c0.68,0,0.982,0.859,0.982,2.786c0,0,0,6.556,0,6.747c-0.162,0.023-1.191,0.172-1.191,0.172v0.58h4.49v-0.584
	c0,0-1.093-0.146-1.261-0.17c0-0.182,0.025-2.614,0.025-2.614c0.295-5.484,1.52-6.054,2.046-6.388
	c0.438-0.277,1.071-0.323,1.128-0.235c0.252,0.378,0.836,0.34,0.836,0.34c0.158-0.016,0.877,0.073,1.467-0.913
	c0.002-0.004,0.031-0.141,0.4-0.143c1.584-0.009,2.193,1.819,2.219,3.021l0.025,0.006c0,0.003,0,0.008,0,0.011
	c-2.27,0.732-5.982,1.958-5.982,5.025c0,1.8,1.273,3.058,3.098,3.058c1.256,0,2.434-0.742,3.102-1.914
	c0.107,1.219,0.688,1.914,1.641,1.914c0.447,0,1.027-0.4,1.631-1.111c0.637,0.695,1.791,1.111,3.254,1.111
	c2.27,0,4.047-1.559,4.047-3.546C55.438,13.732,54.39,12.365,52.63,11.615z M44.653,15.863c-0.674,0.79-1.43,1.248-2.08,1.248
	c-1.01,0-1.746-0.822-1.746-1.958c0-2.101,2.1-2.812,3.785-3.383c0,0,0.027-0.01,0.041-0.014
	C44.653,12.044,44.653,15.778,44.653,15.863z"/>
<rect y="0" fill="none" width="76.147" height="29.462"/>
<g>
	<path d="M76.147,20.184c0,0.763-0.619,1.383-1.379,1.383c-0.76,0-1.383-0.624-1.383-1.383c0-0.776,0.619-1.388,1.398-1.388
		C75.532,18.796,76.147,19.424,76.147,20.184z M73.638,20.184c0,0.628,0.512,1.148,1.131,1.148c0.62,0,1.127-0.516,1.127-1.152
		c0-0.627-0.503-1.15-1.115-1.15C74.141,19.028,73.638,19.536,73.638,20.184z M74.293,19.376H74.7c0.181,0,0.265,0.012,0.34,0.044
		c0.141,0.056,0.229,0.2,0.229,0.372c0,0.207-0.124,0.375-0.332,0.447l0.456,0.748h-0.276l-0.432-0.712h-0.144v0.712h-0.248V19.376z
		 M74.661,20.075c0.239,0,0.344-0.084,0.344-0.283c0-0.152-0.072-0.217-0.248-0.217h-0.101h-0.115v0.5H74.661z"/>
</g>
</svg>
